HIERARCHY
ROOT Hips
{
	OFFSET 0.000000 35.082581 0.000000
	CHANNELS 6 Xposition Yposition Zposition Xrotation Yrotation Zrotation 
	JOINT Spine
	{
		OFFSET 0.000000 6.876099 0.125700
		CHANNELS 3 Xrotation Yrotation Zrotation
		JOINT Spine1
		{
			OFFSET 0.000000 5.730043 0.104720
			CHANNELS 3 Xrotation Yrotation Zrotation
			JOINT Spine1_split
			{
				OFFSET 0.000000 5.730043 0.104720
				CHANNELS 3 Xrotation Yrotation Zrotation
				JOINT Spine2
				{
					OFFSET 0.000000 5.730043 0.104720
					CHANNELS 3 Xrotation Yrotation Zrotation
					JOINT Neck
					{
						OFFSET 0.000000 10.314075 0.188496
						CHANNELS 3 Xrotation Yrotation Zrotation
						JOINT Head
						{
							OFFSET 0.000000 7.643700 -2.377400
							CHANNELS 3 Xrotation Yrotation Zrotation
							JOINT HeadTop_End
							{
								OFFSET 0.000000 43.788605 -13.619600
								CHANNELS 3 Xrotation Yrotation Zrotation
								End Site
								{
									OFFSET 0.000000 0.000000 0.000000
								}
							}
						}
					}
					JOINT LeftShoulder
					{
						OFFSET 2.196100 4.412489 0.087492
						CHANNELS 3 Xrotation Yrotation Zrotation
						JOINT LeftShoulder_split
						{
							OFFSET 2.196100 4.412489 0.087492
							CHANNELS 3 Xrotation Yrotation Zrotation
							JOINT LeftArm
							{
								OFFSET 8.771219 -2.981674 -0.026999
								CHANNELS 3 Xrotation Yrotation Zrotation
								JOINT LeftForeArm
								{
									OFFSET 8.512804 0.000000 -0.000000
									CHANNELS 3 Xrotation Yrotation Zrotation
									JOINT LeftHand
									{
										OFFSET 18.484802 0.000000 -0.000000
										CHANNELS 3 Xrotation Yrotation Zrotation
										JOINT LeftHandThumb1
										{
											OFFSET 2.499420 -1.158070 2.653252
											CHANNELS 3 Xrotation Yrotation Zrotation
											JOINT LeftHandThumb2
											{
												OFFSET 2.370079 -1.368366 1.368366
												CHANNELS 3 Xrotation Yrotation Zrotation
												JOINT LeftHandThumb3
												{
													OFFSET 2.676727 -1.545410 1.545409
													CHANNELS 3 Xrotation Yrotation Zrotation
													JOINT LeftHandThumb4
													{
														OFFSET 1.692226 -0.977005 0.977007
														CHANNELS 3 Xrotation Yrotation Zrotation
														End Site
														{
															OFFSET 0.000000 0.000000 0.000000
														}
													}
												}
											}
										}
										JOINT LeftHandIndex1
										{
											OFFSET 7.924831 -0.457527 2.345128
											CHANNELS 3 Xrotation Yrotation Zrotation
											JOINT LeftHandIndex2
											{
												OFFSET 3.643303 0.000000 0.000000
												CHANNELS 3 Xrotation Yrotation Zrotation
												JOINT LeftHandIndex3
												{
													OFFSET 3.810799 0.000000 0.000000
													CHANNELS 3 Xrotation Yrotation Zrotation
													JOINT LeftHandIndex4
													{
														OFFSET 2.403702 0.000000 0.000000
														CHANNELS 3 Xrotation Yrotation Zrotation
														End Site
														{
															OFFSET 0.000000 0.000000 0.000000
														}
													}
												}
											}
										}
										JOINT LeftHandMiddle1
										{
											OFFSET 8.563995 0.000000 -0.000000
											CHANNELS 3 Xrotation Yrotation Zrotation
											JOINT LeftHandMiddle2
											{
												OFFSET 3.861618 0.000000 0.000000
												CHANNELS 3 Xrotation Yrotation Zrotation
												JOINT LeftHandMiddle3
												{
													OFFSET 3.701603 0.000000 0.000000
													CHANNELS 3 Xrotation Yrotation Zrotation
													JOINT LeftHandMiddle4
													{
														OFFSET 2.322544 0.000000 0.000000
														CHANNELS 3 Xrotation Yrotation Zrotation
														End Site
														{
															OFFSET 0.000000 0.000000 0.000000
														}
													}
												}
											}
										}
										JOINT LeftHandRing1
										{
											OFFSET 8.426460 -0.424637 -3.286992
											CHANNELS 3 Xrotation Yrotation Zrotation
											JOINT LeftHandRing2
											{
												OFFSET 3.126408 0.000000 0.000000
												CHANNELS 3 Xrotation Yrotation Zrotation
												JOINT LeftHandRing3
												{
													OFFSET 3.085026 0.000000 0.000000
													CHANNELS 3 Xrotation Yrotation Zrotation
													JOINT LeftHandRing4
													{
														OFFSET 1.644005 0.000000 0.000000
														CHANNELS 3 Xrotation Yrotation Zrotation
														End Site
														{
															OFFSET 0.000000 0.000000 0.000000
														}
													}
												}
											}
										}
									}
								}
							}
						}
					}
					JOINT RightShoulder
					{
						OFFSET -2.196100 4.412496 0.070690
						CHANNELS 3 Xrotation Yrotation Zrotation
						JOINT RightShoulder_split
						{
							OFFSET -2.196100 4.412496 0.070690
							CHANNELS 3 Xrotation Yrotation Zrotation
							JOINT RightArm
							{
								OFFSET -8.771282 -2.981682 -0.094208
								CHANNELS 3 Xrotation Yrotation Zrotation
								JOINT RightForeArm
								{
									OFFSET -8.494598 0.000000 0.000000
									CHANNELS 3 Xrotation Yrotation Zrotation
									JOINT RightHand
									{
										OFFSET -18.483803 0.000000 0.000001
										CHANNELS 3 Xrotation Yrotation Zrotation
										JOINT RightHandThumb1
										{
											OFFSET -2.527351 -1.008072 2.575253
											CHANNELS 3 Xrotation Yrotation Zrotation
											JOINT RightHandThumb2
											{
												OFFSET -2.321518 -1.340328 1.340329
												CHANNELS 3 Xrotation Yrotation Zrotation
												JOINT RightHandThumb3
												{
													OFFSET -2.657753 -1.534454 1.534455
													CHANNELS 3 Xrotation Yrotation Zrotation
													JOINT RightHandThumb4
													{
														OFFSET -1.807510 -1.043568 1.043567
														CHANNELS 3 Xrotation Yrotation Zrotation
														End Site
														{
															OFFSET 0.000000 0.000000 0.000000
														}
													}
												}
											}
										}
										JOINT RightHandIndex1
										{
											OFFSET -8.811420 0.015533 2.887987
											CHANNELS 3 Xrotation Yrotation Zrotation
											JOINT RightHandIndex2
											{
												OFFSET -3.537502 0.000000 0.000000
												CHANNELS 3 Xrotation Yrotation Zrotation
												JOINT RightHandIndex3
												{
													OFFSET -3.356201 0.000000 0.000000
													CHANNELS 3 Xrotation Yrotation Zrotation
													JOINT RightHandIndex4
													{
														OFFSET -1.933098 0.000000 0.000000
														CHANNELS 3 Xrotation Yrotation Zrotation
														End Site
														{
															OFFSET 0.000000 0.000000 0.000000
														}
													}
												}
											}
										}
										JOINT RightHandMiddle1
										{
											OFFSET -8.178135 0.000000 0.000000
											CHANNELS 3 Xrotation Yrotation Zrotation
											JOINT RightHandMiddle2
											{
												OFFSET -3.901302 0.000000 0.000000
												CHANNELS 3 Xrotation Yrotation Zrotation
												JOINT RightHandMiddle3
												{
													OFFSET -3.909599 0.000000 0.000000
													CHANNELS 3 Xrotation Yrotation Zrotation
													JOINT RightHandMiddle4
													{
														OFFSET -2.376003 0.000000 0.000000
														CHANNELS 3 Xrotation Yrotation Zrotation
														End Site
														{
															OFFSET 0.000000 0.000000 0.000000
														}
													}
												}
											}
										}
										JOINT RightHandRing1
										{
											OFFSET -7.559013 0.014137 -2.865403
											CHANNELS 3 Xrotation Yrotation Zrotation
											JOINT RightHandRing2
											{
												OFFSET -3.449306 0.000000 0.000000
												CHANNELS 3 Xrotation Yrotation Zrotation
												JOINT RightHandRing3
												{
													OFFSET -3.362106 0.000000 0.000000
													CHANNELS 3 Xrotation Yrotation Zrotation
													JOINT RightHandRing4
													{
														OFFSET -2.076401 0.000000 0.000000
														CHANNELS 3 Xrotation Yrotation Zrotation
														End Site
														{
															OFFSET 0.000000 0.000000 0.000000
														}
													}
												}
											}
										}
									}
								}
							}
						}
					}
				}
			}
		}
	}
	JOINT LeftUpLeg
	{
		OFFSET 10.205400 -3.823500 0.155100
		CHANNELS 3 Xrotation Yrotation Zrotation
		JOINT LeftLeg
		{
			OFFSET 0.708757 -12.982077 0.567790
			CHANNELS 3 Xrotation Yrotation Zrotation
			JOINT LeftFoot
			{
				OFFSET -0.708756 -10.717838 -2.184338
				CHANNELS 3 Xrotation Yrotation Zrotation
				JOINT LeftToeBase
				{
					OFFSET 0.108149 -7.191104 7.560241
					CHANNELS 3 Xrotation Yrotation Zrotation
					JOINT LeftToe_End
					{
						OFFSET 0.070230 0.081724 4.490308
						CHANNELS 3 Xrotation Yrotation Zrotation
						End Site
						{
							OFFSET 0.000000 0.000000 0.000000
						}
					}
				}
			}
		}
	}
	JOINT RightUpLeg
	{
		OFFSET -10.205400 -3.823500 0.005500
		CHANNELS 3 Xrotation Yrotation Zrotation
		JOINT RightLeg
		{
			OFFSET -0.708756 -12.982134 0.610632
			CHANNELS 3 Xrotation Yrotation Zrotation
			JOINT RightFoot
			{
				OFFSET 0.708754 -10.717769 -1.945823
				CHANNELS 3 Xrotation Yrotation Zrotation
				JOINT RightToeBase
				{
					OFFSET -0.108140 -7.191069 7.372968
					CHANNELS 3 Xrotation Yrotation Zrotation
					JOINT RightToe_End
					{
						OFFSET -0.070227 0.081735 4.479403
						CHANNELS 3 Xrotation Yrotation Zrotation
						End Site
						{
							OFFSET 0.000000 0.000000 0.000000
						}
					}
				}
			}
		}
	}
}
MOTION
Frames: 6
Frame Time: 0.016667
0.141854 33.146542 -0.928173 1.893566 -2.178097 -0.151065 2.071421 0.264495 0.907996 3.430433 -0.015269 0.185037 0.000000 0.000000 0.000000 3.430499 0.005499 0.178976 -3.527216 -0.011365 -0.032778 -2.723276 -0.261568 0.276206 0.000000 0.000000 0.000000 0.742837 8.952357 -13.053776 0.000000 0.000000 0.000000 10.737608 -6.254790 -54.002614 0.000022 -32.994257 0.000020 3.018198 -1.471484 -4.081426 -0.482895 3.821543 13.866291 21.372717 38.839843 0.020890 -0.475026 -2.422455 17.056992 0.000000 0.000000 0.000001 1.076647 5.650976 -31.107103 2.579617 4.853696 -55.959012 0.000004 -0.001530 0.015004 -0.000000 -0.000003 -0.000002 2.297551 7.098885 -41.286615 3.978825 5.544430 -71.308029 0.000003 -0.000583 0.005645 0.000000 0.000000 -0.000000 2.297536 7.098890 -41.286612 3.978829 5.544435 -71.308029 -0.000002 -0.000581 0.005652 0.000000 0.000002 0.000000 1.078070 -8.352864 11.371671 0.000000 0.000000 0.000000 3.407865 18.890973 61.317327 -0.000003 23.538782 0.000014 1.182700 -2.960225 -1.406719 -5.104772 0.227809 -17.972087 16.981351 -29.890906 7.725580 -6.337765 -28.133433 -4.845036 -0.000003 0.000001 0.000002 0.285273 -3.752866 14.876239 3.775972 -4.573223 79.081276 0.158029 1.204127 -14.952701 -0.000000 0.000000 -0.000000 1.456652 -5.863607 32.031600 4.654527 -4.657171 89.967375 0.158023 1.204131 -14.952700 -0.000000 -0.000003 -0.000000 1.456641 -5.863612 32.031586 4.654541 -4.657159 89.967375 0.158028 1.204131 -14.952693 0.000000 0.000001 -0.000000 -10.445404 -6.823937 14.651178 25.091270 -2.682376 -4.597273 -13.641747 16.410091 -10.542863 -0.003548 -0.000001 0.000000 -0.000000 0.000001 0.000000 -6.678219 -3.830977 -14.089062 24.311440 2.182904 2.116056 -17.423142 -13.086893 10.488093 0.109671 -0.000010 0.000002 0.000000 0.000001 0.000000 
0.108333 33.159672 -0.913370 1.872585 -2.334523 0.144316 2.291811 -0.032797 0.674845 3.107405 -0.084774 0.120758 0.000000 0.000000 0.000000 3.107842 -0.065906 0.115674 -3.226256 0.031548 -0.023639 -2.059490 0.093461 0.433889 0.000000 0.000000 -0.000000 0.736513 8.806726 -13.031587 0.000000 0.000000 0.000000 10.933031 -6.745917 -54.051057 0.000018 -32.945281 0.000002 3.215428 -1.441559 -4.145362 -1.226178 4.012589 13.215940 20.501581 38.197785 1.391575 -0.101261 -3.052185 17.764135 0.000002 0.000000 0.000001 1.051736 5.612613 -30.821246 2.451657 4.765053 -54.432766 0.001621 0.137974 -1.346402 0.000000 0.000002 0.000001 2.190038 7.000232 -40.472730 3.756125 5.464393 -68.986557 0.001905 0.149376 -1.457814 -0.000000 -0.000000 -0.000000 2.198435 7.006926 -40.576289 3.751187 5.462505 -68.934777 0.001771 0.144127 -1.406544 0.000000 0.000001 -0.000000 1.091562 -8.197188 11.485139 0.000000 0.000000 0.000000 3.504179 18.923109 61.185989 -0.000001 23.701520 0.000001 1.551627 -2.868867 -1.163871 -5.642958 -0.147093 -17.426138 16.936694 -29.156961 6.578080 -5.748137 -26.936422 -5.700904 -0.000002 0.000000 0.000003 0.293432 -3.774307 15.343515 3.548778 -4.523633 76.216988 0.116332 1.035475 -12.819115 -0.000000 0.000000 -0.000001 1.392294 -5.779177 31.586729 4.375157 -4.648647 86.524358 0.114425 1.027073 -12.713274 -0.000000 0.000000 -0.000000 1.398802 -5.785305 31.693177 4.370825 -4.648377 86.471096 0.115376 1.031264 -12.766189 0.000000 0.000003 -0.000000 -11.374675 -7.137127 14.220067 26.688042 -2.849816 -4.263238 -12.835062 16.623734 -11.175780 -2.373271 0.000005 0.000001 0.000000 0.000000 0.000000 -6.995803 -3.749611 -14.439652 24.899106 2.382966 2.184130 -17.745953 -13.051867 10.390369 -0.200939 -0.000007 0.000000 0.000000 0.000001 0.000000 
0.041673 33.165825 -0.880418 1.851622 -2.466740 0.460844 2.558808 -0.396992 0.427540 2.747828 -0.169164 0.053064 0.000000 0.000000 0.000000 2.748699 -0.152292 0.049085 -2.889076 0.082213 -0.012974 -1.319717 0.514194 0.602907 0.000000 -0.000000 -0.000000 0.729837 8.654324 -13.018161 0.000000 0.000000 0.000000 11.156652 -7.294852 -54.080666 -0.000001 -32.921041 0.000001 3.429490 -1.421120 -4.175578 -2.021794 4.232551 12.518352 19.606044 37.444504 2.843486 0.282560 -3.726821 18.491217 -0.000003 0.000006 0.000000 1.025032 5.570816 -30.510120 2.320081 4.668505 -52.832982 0.006757 0.281415 -2.747096 0.000000 -0.000002 -0.000001 2.077948 6.892802 -39.613260 3.527049 5.371198 -66.560706 0.007859 0.303675 -2.964558 0.000000 -0.000004 0.000000 2.094694 6.906835 -39.824337 3.517188 5.366932 -66.455220 0.007312 0.292946 -2.859988 0.000000 -0.000000 0.000000 1.096793 -8.002332 11.568763 0.000000 0.000000 0.000000 3.614124 18.945276 61.044659 -0.000000 23.957211 0.000018 1.916270 -2.796685 -0.913609 -6.220050 -0.561311 -16.846202 16.880394 -28.337811 5.350616 -5.130516 -25.610264 -6.616676 0.000003 -0.000007 -0.000003 0.301839 -3.796156 15.831043 3.306244 -4.457349 73.119969 0.078738 0.853635 -10.538809 0.000001 -0.000001 -0.000002 1.323367 -5.686525 31.092865 4.074435 -4.620647 82.804282 0.075491 0.836023 -10.319081 -0.000000 -0.000002 -0.000000 1.336533 -5.699508 31.313781 4.065542 -4.619510 82.693776 0.077104 0.844818 -10.428937 -0.000000 0.000002 -0.000000 -13.121278 -6.871020 14.122015 29.202197 -3.176714 -3.981474 -11.495236 15.999660 -12.184983 -5.458104 0.000015 0.000001 0.000000 -0.000000 -0.000000 -7.313118 -3.646068 -14.733048 25.671268 2.583810 2.245343 -18.266311 -13.059226 10.206868 -0.267527 0.000009 -0.000002 0.000000 -0.000001 -0.000000 
-0.121514 33.181301 -0.817113 1.831063 -2.591206 0.777576 2.847844 -0.793923 0.179122 2.373876 -0.260962 -0.016101 0.000000 0.000000 0.000000 2.375223 -0.246129 -0.018902 -2.534354 0.136654 -0.001104 -0.540679 0.969614 0.774559 0.000000 -0.000000 0.000000 0.723121 8.496001 -13.005196 0.000000 0.000000 0.000000 11.389993 -7.878151 -54.103971 0.000012 -32.909023 0.000008 3.676862 -1.401129 -4.194162 -2.847537 4.478012 11.792758 18.719740 36.603865 4.328821 0.658160 -4.423271 19.224653 -0.000002 -0.000002 -0.000000 0.997322 5.526785 -30.182930 2.187615 4.565372 -51.187210 0.015562 0.427141 -4.171889 -0.000000 -0.000001 -0.000001 1.964204 6.778790 -38.725236 3.296131 5.265523 -64.069831 0.018087 0.460459 -4.497937 0.000000 -0.000001 0.000000 1.989063 6.800766 -39.046300 3.281424 5.258383 -63.909513 0.016825 0.444182 -4.338826 0.000000 0.000002 0.000000 1.096979 -7.781040 11.642773 0.000000 0.000000 0.000000 3.743078 18.979059 60.878863 -0.000003 24.271419 -0.000003 2.271891 -2.732249 -0.656997 -6.820244 -1.005210 -16.249155 16.817234 -27.461897 4.075782 -4.497546 -24.206308 -7.576613 0.000002 -0.000000 0.000001 0.310433 -3.818218 16.330805 3.056553 -4.374049 69.877821 0.047349 0.663067 -8.167499 0.000000 -0.000000 -0.000000 1.252308 -5.588257 30.568163 3.762437 -4.570605 78.911498 0.043505 0.635759 -7.828923 -0.000000 -0.000001 -0.000000 1.272033 -5.608661 30.908546 3.748876 -4.567922 78.741153 0.045404 0.649414 -7.998218 0.000000 -0.000000 0.000000 -16.800066 -6.194375 13.081294 35.346215 -2.752127 -3.421277 -10.900621 14.709811 -11.099080 -10.826830 0.000012 0.000004 0.000000 0.000000 -0.000000 -7.545085 -3.576019 -14.756060 26.512482 2.750265 2.250486 -18.989413 -13.072000 9.801154 -0.120324 0.000003 -0.000003 0.000000 0.000001 0.000000 
-0.321444 33.179317 -0.727966 1.810774 -2.717881 1.084445 3.154372 -1.207854 -0.068799 1.995519 -0.356287 -0.085877 0.000000 0.000000 0.000000 1.997350 -0.343516 -0.087451 -2.167620 0.192985 0.012224 0.272888 1.446353 0.944674 0.000000 0.000000 -0.000000 0.716351 8.326971 -12.991430 0.000000 0.000000 0.000000 11.631039 -8.501356 -54.118768 -0.000000 -32.909443 -0.000001 3.970516 -1.376491 -4.206927 -3.703777 4.751270 11.038748 17.852947 35.665732 5.843055 1.015716 -5.143527 19.958076 0.000001 -0.000003 -0.000002 0.968640 5.480353 -29.838638 2.054399 4.455272 -49.493402 0.028234 0.575108 -5.621234 -0.000000 -0.000002 0.000001 1.848972 6.657819 -37.807283 3.063936 5.146643 -61.511427 0.032796 0.619673 -6.058413 0.000000 0.000001 -0.000000 1.881647 6.688355 -38.240843 3.044533 5.136103 -61.294876 0.030506 0.597764 -5.843492 -0.000000 -0.000001 -0.000000 1.093915 -7.533888 11.715203 0.000000 0.000000 0.000000 3.896495 19.033881 60.675535 -0.000006 24.640539 -0.000007 2.619213 -2.664679 -0.388913 -7.444121 -1.480920 -15.635515 16.746435 -26.520515 2.754841 -3.851963 -22.711721 -8.577729 0.000003 -0.000003 -0.000001 0.319212 -3.840477 16.842678 2.800749 -4.271931 66.485382 0.023098 0.463787 -5.702568 -0.000000 0.000001 0.000001 1.179282 -5.484020 30.011134 3.440490 -4.495774 74.839803 0.019502 0.426258 -5.239932 0.000000 0.000001 -0.000000 1.205418 -5.512476 30.476154 3.422249 -4.490791 74.607072 0.021262 0.445000 -5.471240 -0.000000 -0.000000 0.000001 -21.088812 -5.050701 12.282450 41.375094 -3.202234 -3.089450 -8.588284 12.807232 -11.064638 -17.243987 0.000019 0.000008 -0.000000 -0.000000 -0.000000 -7.782118 -3.461813 -14.643963 27.587407 2.939567 2.193450 -19.950730 -13.170912 9.307039 0.297293 0.000003 -0.000003 0.000000 -0.000000 0.000000 
-0.533087 33.172501 -0.690083 1.791490 -2.871909 1.370972 3.467447 -1.602658 -0.313557 1.629666 -0.448458 -0.153849 0.000000 0.000000 0.000000 1.631971 -0.437753 -0.154194 -1.801188 0.248374 0.027338 1.113631 1.925528 1.103550 0.000000 -0.000000 0.000000 0.709502 8.143617 -12.975481 0.000000 0.000000 0.000000 11.878146 -9.163500 -54.123286 -0.000019 -32.923520 -0.000035 4.315518 -1.340353 -4.221780 -4.584892 5.052742 10.261284 17.021482 34.629701 7.370623 1.342685 -5.884199 20.682392 -0.000000 -0.000002 -0.000000 0.939164 5.431729 -29.478833 1.921310 4.338394 -47.757458 0.044913 0.724792 -7.091184 -0.000001 -0.000001 -0.000003 1.733115 6.530255 -36.862787 2.832117 5.014412 -58.893982 0.052144 0.780742 -7.641764 0.000000 0.000002 -0.000000 1.773249 6.569942 -37.411005 2.808222 4.999964 -58.620194 0.048506 0.753121 -7.369853 0.000000 -0.000001 0.000000 1.090255 -7.265409 11.796555 0.000000 0.000000 0.000000 4.077676 19.119136 60.423077 0.000019 25.052313 -0.000018 2.967684 -2.581849 -0.102168 -8.087961 -1.987070 -15.010054 16.668662 -25.513338 1.397996 -3.199742 -21.127653 -9.611310 -0.000001 0.000000 -0.000000 0.328095 -3.862843 17.364390 2.541971 -4.150057 62.962139 0.007081 0.257057 -3.157111 -0.000001 0.000002 0.000000 1.104929 -5.374308 29.425401 3.112735 -4.394160 70.612668 0.004686 0.208966 -2.565974 -0.000001 -0.000001 -0.000000 1.137242 -5.411389 30.019515 3.089963 -4.386099 70.315363 0.005817 0.233009 -2.861546 0.000000 0.000001 0.000000 -23.407518 -3.200114 11.906270 43.908851 -3.695862 -2.960061 -6.590423 10.412309 -11.413334 -20.704561 0.000032 0.000007 -0.000001 -0.000000 0.000000 -8.213358 -3.263617 -14.436921 28.827216 3.135579 2.095574 -20.884166 -13.312624 8.758645 0.890309 -0.000008 0.000002 0.000000 0.000001 -0.000000 
